<svg width="40" height="40" viewBox="0 0 40 40" fill="none" xmlns="http://www.w3.org/2000/svg">
<path d="M7.99388 4L36 4.00049L35.9997 31.9939L31.9912 31.9938L31.9915 7.98128L7.99384 7.98088L7.99388 4ZM28.0058 11.9723L28.0053 36L4 35.9997L4.00042 11.972L28.0058 11.9723ZM20.0355 27.9262L7.98365 27.9261L7.98358 32.029L20.0355 32.0291L20.0355 27.9262Z" fill="url(#paint0_linear_2004_19)"/>
<defs>
<style>
      .cls-1 {
        fill: #010101;
      }
    </style>
<linearGradient id="paint0_linear_2004_19" x1="4.85111" y1="4.83668" x2="32.8644" y2="32.8231" gradientUnits="userSpaceOnUse">
<stop offset="0.25601" stop-color="#FF318C"/>
<stop offset="0.72287" stop-color="#AF1DF5"/>
</linearGradient>
</defs>
<rect id="Прямоугольник_скругл._углы_1" data-name="Прямоугольник, скругл. углы 1" class="cls-1" x="26" y="9" width="8" height="17" rx="4" ry="4"/>
  <rect id="Прямоугольник_скругл._углы_4" data-name="Прямоугольник, скругл. углы 4" class="cls-1" x="23" y="27" width="14" height="2" rx="1" ry="1"/>
  <rect id="Прямоугольник_скругл._углы_5" data-name="Прямоугольник, скругл. углы 5" class="cls-1" x="23" y="23" width="2" height="6" rx="1" ry="1"/>
  <rect id="Прямоугольник_скругл._углы_5_копия" data-name="Прямоугольник, скругл. углы 5 копия" class="cls-1" x="35" y="23" width="2" height="6" rx="1" ry="1"/>
  <rect id="Прямоугольник_скругл._углы_2" data-name="Прямоугольник, скругл. углы 2" class="cls-1" x="26" y="30" width="8" height="2" rx="1" ry="1"/>
  <rect id="Прямоугольник_скругл._углы_3" data-name="Прямоугольник, скругл. углы 3" class="cls-1" x="29" y="28" width="2" height="4" rx="1" ry="1"/>
</svg>
